<svg width="204" height="142" viewBox="0 0 204 142" fill="none" xmlns="http://www.w3.org/2000/svg">
  <path d="M100 66C84 26 43 8 11 22C10 58 31 86 70 94" stroke="#FFF8F4" stroke-width="3"/>
  <path d="M98 70C74 45 34 45 8 63C18 100 49 116 82 108" stroke="#FFF8F4" stroke-width="3"/>
  <path d="M104 66C120 26 161 8 193 22C194 58 173 86 134 94" stroke="#FFF8F4" stroke-width="3"/>
  <path d="M106 70C130 45 170 45 196 63C186 100 155 116 122 108" stroke="#FFF8F4" stroke-width="3"/>
  <path d="M102 40V111" stroke="#FFF8F4" stroke-width="4" stroke-linecap="round"/>
  <path d="M99 40L88 20" stroke="#FFF8F4" stroke-width="3" stroke-linecap="round"/>
  <path d="M106 40L117 20" stroke="#FFF8F4" stroke-width="3" stroke-linecap="round"/>
  <path d="M32 39C45 52 63 61 87 65" stroke="#FFF8F4" stroke-width="2"/>
  <path d="M25 73C43 82 60 88 84 86" stroke="#FFF8F4" stroke-width="2"/>
  <path d="M172 39C159 52 141 61 117 65" stroke="#FFF8F4" stroke-width="2"/>
  <path d="M179 73C161 82 144 88 120 86" stroke="#FFF8F4" stroke-width="2"/>
</svg>
