<svg width="144" height="210" viewBox="0 0 144 210" fill="none" xmlns="http://www.w3.org/2000/svg">
  <path d="M71 66C72 38 92 19 108 9C110 30 105 49 92 66" stroke="#FFF8F4" stroke-width="3"/>
  <path d="M70 67C57 37 35 24 17 20C22 42 34 59 55 70" stroke="#FFF8F4" stroke-width="3"/>
  <path d="M72 69C88 48 110 46 128 52C117 67 100 80 76 83" stroke="#FFF8F4" stroke-width="3"/>
  <path d="M73 70C52 56 30 60 13 72C28 81 49 88 73 86" stroke="#FFF8F4" stroke-width="3"/>
  <path d="M76 83C80 102 84 121 87 140C91 164 89 185 85 201" stroke="#FFF8F4" stroke-width="5" stroke-linecap="round"/>
  <path d="M78 119C63 110 48 113 34 124" stroke="#FFF8F4" stroke-width="3" stroke-linecap="round"/>
  <path d="M82 145C95 136 108 136 122 143" stroke="#FFF8F4" stroke-width="3" stroke-linecap="round"/>
  <path d="M86 164C74 162 63 169 56 180" stroke="#FFF8F4" stroke-width="3" stroke-linecap="round"/>
</svg>
