<svg width="180" height="268" viewBox="0 0 180 268" fill="none" xmlns="http://www.w3.org/2000/svg">
  <path d="M84 42C94 23 126 24 131 49C134 65 120 76 103 74C90 72 82 58 84 42Z" stroke="#FFF8F4" stroke-width="3"/>
  <path d="M98 42C102 33 112 31 118 40C123 47 119 57 108 58" stroke="#FFF8F4" stroke-width="2" stroke-linecap="round"/>
  <path d="M79 68C68 40 32 54 35 83C37 103 59 110 77 97" stroke="#FFF8F4" stroke-width="3"/>
  <path d="M77 98C63 79 34 90 38 120C41 142 67 148 84 131" stroke="#FFF8F4" stroke-width="3"/>
  <path d="M90 98C109 82 145 93 142 123C140 144 116 147 95 137" stroke="#FFF8F4" stroke-width="3"/>
  <path d="M85 129C69 111 43 124 46 151C49 175 77 176 93 159" stroke="#FFF8F4" stroke-width="3"/>
  <path d="M94 144C115 130 143 145 137 171C133 190 111 190 94 181" stroke="#FFF8F4" stroke-width="3"/>
  <path d="M86 147C95 174 107 198 118 222C125 236 131 251 134 261" stroke="#FFF8F4" stroke-width="5" stroke-linecap="round"/>
  <path d="M98 183C80 173 58 178 45 194" stroke="#FFF8F4" stroke-width="3" stroke-linecap="round"/>
  <path d="M107 204C122 195 138 194 151 201" stroke="#FFF8F4" stroke-width="3" stroke-linecap="round"/>
</svg>
