<svg width="214" height="182" viewBox="0 0 214 182" fill="none" xmlns="http://www.w3.org/2000/svg">
  <path d="M10 74C38 57 63 58 88 70C101 76 112 86 125 99C133 108 143 118 151 126" stroke="#FFF8F4" stroke-width="3"/>
  <path d="M34 60C64 31 112 25 150 39C120 51 98 64 78 88" stroke="#FFF8F4" stroke-width="3"/>
  <path d="M67 80C78 118 85 144 88 170C68 154 50 140 36 118C28 106 24 92 23 78" stroke="#FFF8F4" stroke-width="3"/>
  <path d="M106 91C137 80 168 88 196 109C173 112 152 119 132 130" stroke="#FFF8F4" stroke-width="3"/>
  <path d="M138 132C123 143 111 157 100 173" stroke="#FFF8F4" stroke-width="4" stroke-linecap="round"/>
  <path d="M151 126C169 131 185 130 205 120" stroke="#FFF8F4" stroke-width="3" stroke-linecap="round"/>
  <circle cx="157" cy="118" r="3" fill="#FFF8F4"/>
</svg>
