<svg width="126" height="170" viewBox="0 0 126 170" fill="none" xmlns="http://www.w3.org/2000/svg">
  <rect x="6" y="6" width="114" height="158" rx="14" stroke="#FFF8F4" stroke-width="4"/>
  <rect x="16" y="14" width="94" height="142" rx="10" stroke="#D9AF87" stroke-width="2"/>
  <path d="M25 38H99" stroke="#D9AF87" stroke-width="2"/>
  <path d="M27 55H50" stroke="#D9AF87" stroke-width="2"/>
  <path d="M57 55H79" stroke="#D9AF87" stroke-width="2"/>
  <path d="M85 55H97" stroke="#D9AF87" stroke-width="2"/>
  <path d="M31 77C33 66 42 60 50 60C61 60 68 67 68 79C68 93 60 101 43 101" stroke="#D9AF87" stroke-width="4" stroke-linecap="round"/>
  <path d="M81 63H100L88 84C96 86 102 91 102 102C102 117 91 124 79 124C68 124 59 118 57 107" stroke="#D9AF87" stroke-width="4" stroke-linecap="round" stroke-linejoin="round"/>
  <path d="M52 112C38 117 31 127 31 140C31 153 39 161 51 161C62 161 70 153 70 140C70 127 61 119 48 119H81" stroke="#D9AF87" stroke-width="4" stroke-linecap="round" stroke-linejoin="round"/>
</svg>
