<svg xmlns="http://www.w3.org/2000/svg" viewBox="0 0 64 64" role="img" aria-label="Clay ball icon">
  <defs>
    <radialGradient id="clay-fill" cx="32%" cy="28%" r="70%">
      <stop offset="0%" stop-color="#c77a66" />
      <stop offset="58%" stop-color="#a85f4a" />
      <stop offset="100%" stop-color="#864433" />
    </radialGradient>
    <linearGradient id="clay-highlight" x1="0%" y1="0%" x2="100%" y2="100%">
      <stop offset="0%" stop-color="#f3d2c4" stop-opacity="0.82" />
      <stop offset="100%" stop-color="#f3d2c4" stop-opacity="0" />
    </linearGradient>
  </defs>
  <path
    d="M31.8 8.4c11.6 0 22.6 8 24.4 20 .8 5.2-.3 10.9-3.4 15.6-4.1 6.2-11.6 11.4-20.8 11.4-10.4 0-19.8-6.3-23-16.4C5.7 28.3 11.8 15.8 22.9 10.8c2.7-1.3 5.8-2.4 8.9-2.4Z"
    fill="url(#clay-fill)"
    stroke="#713126"
    stroke-width="2.2"
    stroke-linejoin="round"
  />
  <path
    d="M21.7 18.8c2.9-2.8 8.5-5.1 14-3.9 1.7.4 3.3 1 4.7 1.8-2.1-2.3-6.1-4.4-10.8-4.1-3.7.3-6.4 1.8-7.9 3.3Z"
    fill="url(#clay-highlight)"
  />
  <path
    d="M20.7 46.9c3.2 1.8 7.5 2.7 11.8 2.4 5-.3 9.7-2.3 12.9-5.1-2.7 4.7-8.8 8.7-15.5 8.7-4 0-7.5-1.2-9.2-2Z"
    fill="#723224"
    fill-opacity="0.3"
  />
</svg>
